<svg width="113" height="112" viewBox="0 0 113 112" fill="none" xmlns="http://www.w3.org/2000/svg">
<path d="M1.5 56C1.5 25.7742 26.2742 1 56.5 1C86.7254 1 111.5 25.7742 111.5 56C111.5 70.9858 105.238 84.5822 95.4622 94.5033L56.5 107.663L17.5378 94.5033C7.76199 84.5821 1.5 70.9857 1.5 56ZM32.5312 56C32.5312 69.2179 43.2821 79.9688 56.5 79.9688C69.7179 79.9688 80.4688 69.2179 80.4688 56C80.4688 42.7821 69.7179 32.0312 56.5 32.0312C43.2821 32.0312 32.5312 42.7821 32.5312 56Z" fill="url(#paint0_linear_711_64)" stroke="url(#paint1_linear_711_64)" stroke-width="2"/>
<path d="M56.5 0C25.7219 0 0.5 25.2219 0.5 56C0.5 71.356 6.95313 85.2685 16.9935 95.375L56.5 108.719L96.0065 95.375C106.047 85.2685 112.5 71.356 112.5 56C112.5 25.2219 87.2777 0 56.5 0ZM56.5 78.9688C43.8344 78.9688 33.5312 68.6656 33.5312 56C33.5312 43.3344 43.8344 33.0312 56.5 33.0312C69.1656 33.0312 79.4688 43.3344 79.4688 56C79.4688 68.6656 69.1656 78.9688 56.5 78.9688Z" fill="url(#paint2_linear_711_64)"/>
<path d="M56.5 95.3749C46.6563 95.3749 46.6563 88.8124 36.8125 88.8124C26.9688 88.8124 26.9688 95.4405 16.9936 95.3749C27.1 105.481 41.0781 112 56.5 112C71.9219 112 85.8998 105.481 96.0065 95.3749C86.0313 95.4405 86.0969 88.8124 76.1875 88.8124C66.3438 88.8124 66.3438 95.3749 56.5 95.3749ZM26.0074 66.8051C24.7257 65.5234 22.6491 65.5234 21.3675 66.8051C20.0858 68.0867 20.0858 70.1633 21.3675 71.445L27.93 78.0075C29.2118 79.2891 31.2882 79.2891 32.5699 78.0075C33.8515 76.7258 33.8515 74.6492 32.5699 73.3676L26.0074 66.8051ZM56.5 26.4687H69.625C71.4387 26.4687 72.9063 25.0011 72.9063 23.1874C72.9063 21.3738 71.4387 19.9062 69.625 19.9062H56.5C54.6864 19.9062 53.2188 21.3738 53.2188 23.1874C53.2188 25.0011 54.6864 26.4687 56.5 26.4687ZM85.0699 78.0073L91.6324 71.4448C92.914 70.1631 92.914 68.0865 91.6324 66.8049C90.3507 65.5232 88.2741 65.5232 86.9925 66.8049L80.43 73.3674C79.1483 74.649 79.1483 76.7256 80.43 78.0073C81.7118 79.2891 83.7882 79.2891 85.0699 78.0073ZM86.9927 45.1948C88.2746 46.4764 90.3509 46.4764 91.6326 45.1948C92.9142 43.9131 92.9142 41.8365 91.6326 40.5549L85.0701 33.9924C83.7884 32.7107 81.7118 32.7107 80.4302 33.9924C79.1485 35.274 79.1485 37.3506 80.4302 38.6323L86.9927 45.1948ZM26.0074 45.1948L32.5699 38.6323C33.8515 37.3506 33.8515 35.274 32.5699 33.9924C31.2882 32.7107 29.2116 32.7107 27.93 33.9924L21.3675 40.5549C20.0858 41.8365 20.0858 43.9131 21.3675 45.1948C22.6493 46.4767 24.7257 46.4767 26.0074 45.1948ZM43.3752 26.3125C45.1874 26.3125 46.6565 24.8434 46.6565 23.0312C46.6565 21.2191 45.1874 19.75 43.3752 19.75C41.5631 19.75 40.094 21.2191 40.094 23.0312C40.094 24.8434 41.5629 26.3125 43.3752 26.3125ZM20.4065 55.8437C20.4065 54.0316 18.9374 52.5625 17.1252 52.5625C15.3131 52.5625 13.844 54.0316 13.844 55.8437C13.844 57.6559 15.3131 59.125 17.1252 59.125C18.9374 59.125 20.4065 57.6559 20.4065 55.8437ZM95.8752 52.5625C94.0631 52.5625 92.594 54.0316 92.594 55.8437C92.594 57.6559 94.0631 59.125 95.8752 59.125C97.6874 59.125 99.1565 57.6559 99.1565 55.8437C99.1565 54.0316 97.6874 52.5625 95.8752 52.5625Z" fill="white"/>
<defs>
<linearGradient id="paint0_linear_711_64" x1="56.5" y1="-41.5486" x2="56.5" y2="145.074" gradientUnits="userSpaceOnUse">
<stop stop-color="#FFAE00"/>
<stop offset="1" stop-color="#FFCD1E"/>
</linearGradient>
<linearGradient id="paint1_linear_711_64" x1="56.5" y1="0" x2="56.5" y2="108.719" gradientUnits="userSpaceOnUse">
<stop stop-color="#FF9F00"/>
<stop offset="1" stop-color="#FFB800"/>
</linearGradient>
<linearGradient id="paint2_linear_711_64" x1="56.5" y1="-41.5486" x2="56.5" y2="145.074" gradientUnits="userSpaceOnUse">
<stop offset="0.630208" stop-color="#FFAE00"/>
<stop offset="1" stop-color="#FFCD1E"/>
</linearGradient>
</defs>
</svg>
