<svg width="73" height="112" viewBox="0 0 73 112" fill="none" xmlns="http://www.w3.org/2000/svg">
<path d="M2.81732 110.826L2.81344 110.825C1.96373 110.473 1.40613 109.64 1.40613 108.717V3.28125C1.40613 2.01988 2.42601 1 3.68738 1H69.3124C70.5737 1 71.5936 2.01982 71.5938 3.28125C71.5938 3.28129 71.5938 3.28133 71.5938 3.28137V108.718C71.5938 109.64 71.0362 110.473 70.1865 110.825L70.1811 110.827C69.3592 111.173 68.3643 110.995 67.6996 110.33C64.966 107.597 60.5339 107.597 57.8003 110.33C56.9092 111.222 55.4658 111.222 54.5746 110.33C51.8411 107.597 47.4089 107.597 44.6753 110.33C43.7842 111.222 42.3408 111.222 41.4496 110.33C38.7161 107.597 34.2839 107.597 31.5503 110.33C30.6592 111.222 29.2158 111.222 28.3246 110.33C25.5911 107.597 21.1589 107.597 18.4253 110.33C17.5342 111.222 16.0908 111.222 15.1996 110.33C12.4661 107.597 8.03394 107.597 5.30033 110.33C4.64372 110.987 3.65876 111.178 2.81732 110.826Z" fill="url(#paint0_linear_711_97)" stroke="url(#paint1_linear_711_97)" stroke-width="2"/>
<path d="M36.5002 35.303C34.6929 35.303 33.219 33.8321 33.219 32.0217C33.219 30.2114 34.6929 28.7405 36.5002 28.7405C38.3076 28.7405 39.7815 30.2114 39.7815 32.0217C39.7815 33.8354 41.2491 35.303 43.0627 35.303C44.8764 35.303 46.344 33.8354 46.344 32.0217C46.344 27.7495 43.593 24.1415 39.7815 22.7824V18.8967C39.7815 17.0831 38.3139 15.6155 36.5002 15.6155C34.6866 15.6155 33.219 17.0831 33.219 18.8967V22.7824C29.4075 24.1415 26.6565 27.7495 26.6565 32.0217C26.6565 37.4498 31.0722 41.8655 36.5002 41.8655C38.3076 41.8655 39.7815 43.3364 39.7815 45.1467C39.7815 46.9571 38.3076 48.428 36.5002 48.428C34.6929 48.428 33.219 46.9571 33.219 45.1467C33.219 43.3331 31.7514 41.8655 29.9377 41.8655C28.1241 41.8655 26.6565 43.3331 26.6565 45.1467C26.6565 49.4189 29.4075 53.027 33.219 54.3861V58.2717C33.219 60.0854 34.6866 61.553 36.5002 61.553C38.3139 61.553 39.7815 60.0854 39.7815 58.2717V54.3861C43.593 53.0272 46.344 49.4189 46.344 45.1467C46.344 39.7187 41.9285 35.303 36.5002 35.303ZM36.5002 68.1155H16.8127C14.9991 68.1155 13.5315 69.5831 13.5315 71.3967C13.5315 73.2104 14.9991 74.678 16.8127 74.678H36.5002C38.3139 74.678 39.7815 73.2104 39.7815 71.3967C39.7815 69.5831 38.3139 68.1155 36.5002 68.1155ZM36.5002 81.2405H16.8127C14.9991 81.2405 13.5315 82.7081 13.5315 84.5217C13.5315 86.3354 14.9991 87.803 16.8127 87.803H36.5002C38.3139 87.803 39.7815 86.3354 39.7815 84.5217C39.7815 82.7081 38.3139 81.2405 36.5002 81.2405ZM49.6252 74.678H56.1877C58.0014 74.678 59.469 73.2104 59.469 71.3967C59.469 69.5831 58.0014 68.1155 56.1877 68.1155H49.6252C47.8116 68.1155 46.344 69.5831 46.344 71.3967C46.344 73.2104 47.8116 74.678 49.6252 74.678ZM56.1877 81.2405H49.6252C47.8116 81.2405 46.344 82.7081 46.344 84.5217C46.344 86.3354 47.8116 87.803 49.6252 87.803H56.1877C58.0014 87.803 59.469 86.3354 59.469 84.5217C59.469 82.7081 58.0014 81.2405 56.1877 81.2405Z" fill="white"/>
<defs>
<linearGradient id="paint0_linear_711_97" x1="36.5" y1="-42.8026" x2="36.5" y2="149.452" gradientUnits="userSpaceOnUse">
<stop offset="0.630208" stop-color="#FFAE00"/>
<stop offset="1" stop-color="#FFCD1E"/>
</linearGradient>
<linearGradient id="paint1_linear_711_97" x1="36.5" y1="0" x2="36.5" y2="112" gradientUnits="userSpaceOnUse">
<stop stop-color="#FF9F00"/>
<stop offset="1" stop-color="#FFB800"/>
</linearGradient>
</defs>
</svg>
