<svg width="87" height="112" viewBox="0 0 87 112" fill="none" xmlns="http://www.w3.org/2000/svg">
<g clip-path="url(#clip0_711_78)">
<path d="M43.5 112C42.4155 112 41.4003 111.473 40.7822 110.589C32.7923 99.1613 25.8817 90.4006 20.329 83.3615C7.54296 67.1527 0.5 58.2242 0.5 42.6562C0.5 19.1356 19.7898 0 43.5 0C67.2102 0 86.5 19.1356 86.5 42.6562C86.5 58.2083 79.4085 67.2046 66.5346 83.5367C61.0059 90.5505 54.1254 99.2793 46.2178 110.589C45.5997 111.473 44.5845 112 43.5 112Z" fill="url(#paint0_linear_711_78)"/>
<path d="M43.5 66C30.8178 66 20.5 55.6822 20.5 43C20.5 30.3178 30.8178 20 43.5 20C56.1822 20 66.5 30.3178 66.5 43C66.5 55.6822 56.1822 66 43.5 66Z" fill="white"/>
</g>
<defs>
<linearGradient id="paint0_linear_711_78" x1="43.5" y1="-42.8025" x2="43.5" y2="149.452" gradientUnits="userSpaceOnUse">
<stop offset="0.630208" stop-color="#FFAE00"/>
<stop offset="1" stop-color="#FFCD1E"/>
</linearGradient>
<clipPath id="clip0_711_78">
<rect width="86" height="112" fill="white" transform="translate(0.5)"/>
</clipPath>
</defs>
</svg>
